<svg version="1.1" id="Layer_1" x="10px" y="10px"currentColor
	 width="100%" viewBox="0 0 1024 1024" enable-background="new 0 0 1024 1024" xml:space="preserve">
<path fill="currentColor" opacity="1.000000" stroke="none" 
	d="
M281.662018,742.397217 
	C259.903168,726.023315 245.208054,705.205688 240.457474,678.589478 
	C229.986481,619.923523 269.955322,572.225830 321.873260,562.143616 
	C345.628601,557.530518 368.257690,562.716248 388.855377,575.548096 
	C392.281036,577.682190 393.821503,577.056763 396.080780,574.187927 
	C403.295319,565.026855 410.725708,556.032898 418.207458,547.087158 
	C419.915741,545.044556 420.774536,543.029663 420.762024,540.343384 
	C420.685089,523.845520 420.693207,507.346832 420.796661,490.849182 
	C420.815308,487.872223 419.996216,485.330780 418.478088,482.852570 
	C411.684021,471.761749 404.143646,461.177063 396.773193,450.473389 
	C394.709564,447.476501 393.089172,447.208862 389.948608,449.170471 
	C346.323608,476.418915 292.312836,467.152283 260.357635,426.897308 
	C242.194336,404.016357 235.242386,377.813263 239.669418,349.072174 
	C246.018204,307.854675 269.505066,279.661041 308.482483,265.842010 
	C351.271515,250.671631 401.684723,270.433380 424.406067,309.836792 
	C443.412872,342.798431 443.998871,376.471344 427.345154,410.563080 
	C426.702728,411.878204 425.668549,413.074768 426.044983,415.355835 
	C482.797974,415.355835 539.637939,415.355835 597.425537,415.355835 
	C579.387512,381.226471 577.777222,347.075958 596.477173,313.083496 
	C608.243225,291.695282 625.843506,276.745880 648.495544,267.679535 
	C689.973267,251.078308 737.938477,265.655365 764.658203,303.023834 
	C792.447449,341.888031 790.291626,394.040588 760.148438,429.509674 
	C732.670776,461.842224 678.102966,480.433624 628.356140,446.693970 
	C625.050476,451.378296 621.619629,456.012177 618.433411,460.808655 
	C613.642334,468.021118 609.022522,475.347412 604.329895,482.625214 
	C602.850220,484.920044 602.107056,487.387421 602.080261,490.162811 
	C601.922302,506.486023 601.695068,522.808655 601.461792,539.131042 
	C601.435303,540.987549 601.429749,542.763550 602.667969,544.339478 
	C611.496460,555.575500 620.300537,566.830688 629.463562,578.528076 
	C656.533691,560.675964 685.529358,555.606506 716.237854,566.132324 
	C739.063782,573.956299 756.869568,588.627808 769.591309,609.257202 
	C794.442261,649.555420 787.406921,703.366089 748.062683,736.626343 
	C714.861816,764.693298 662.242432,771.239319 620.970154,737.882935 
	C586.039062,709.651611 569.274109,654.440796 598.597534,607.074036 
	C588.601624,600.084839 577.797852,594.488220 567.114197,588.511230 
	C564.265442,591.889709 565.101562,595.418030 565.394348,598.510437 
	C566.453735,609.697754 556.778015,617.398499 546.713379,617.348450 
	C523.716370,617.234070 500.718475,617.311523 477.720917,617.294312 
	C464.554352,617.284485 457.282166,610.779053 457.238434,597.536560 
	C457.210327,589.025146 456.771942,587.029846 447.918030,592.701843 
	C441.895050,596.560242 435.588165,600.007080 429.239746,603.314636 
	C425.035919,605.504822 423.879089,607.575439 426.637665,612.135132 
	C435.661743,627.051331 439.449463,643.547363 439.069427,660.846008 
	C437.980927,710.391785 400.449524,754.594177 349.225311,759.540039 
	C324.602325,761.917480 302.311462,756.466370 281.662018,742.397217 
M295.659882,425.831696 
	C320.829987,445.186737 360.636932,441.474304 375.117340,427.110382 
	C374.637604,425.217102 373.078278,424.125061 371.814148,422.841400 
	C364.335632,415.247498 356.812408,407.697601 349.328888,400.108582 
	C347.324707,398.076111 345.585754,395.971985 345.662994,392.768341 
	C345.807465,386.776337 345.783600,380.776489 345.660614,374.783386 
	C345.598907,371.776398 346.831787,370.595734 349.802246,370.652527 
	C355.462677,370.760834 361.130493,370.809906 366.787842,370.639130 
	C370.556000,370.525360 373.531067,371.814575 376.202789,374.386841 
	C383.279114,381.199615 390.428925,387.936554 397.590790,394.659668 
	C399.371155,396.330902 400.882019,398.437439 403.521393,398.972443 
	C405.235687,397.868958 405.853210,396.049988 406.484436,394.405701 
	C415.703522,370.389526 416.525208,346.502716 403.361420,323.682800 
	C383.074005,288.513855 341.105927,278.884125 312.178467,291.054688 
	C256.050140,314.669373 246.814697,388.303009 295.659882,425.831696 
M758.654785,359.814758 
	C757.198059,338.858063 749.573425,320.849243 733.881836,306.407104 
	C700.158264,275.368713 649.862793,280.645813 623.350159,318.030548 
	C610.683289,335.891815 607.089966,355.679871 610.604614,376.882599 
	C611.919983,384.817902 614.530457,392.525299 619.037659,399.289795 
	C621.481812,398.605652 622.603577,397.081543 623.899292,395.830200 
	C631.447693,388.540131 638.968323,381.221161 646.485718,373.899017 
	C648.312256,372.119843 650.198975,370.667206 652.988403,370.702148 
	C659.651245,370.785675 666.317139,370.777618 672.979614,370.673615 
	C675.947083,370.627319 676.994019,371.862061 677.182007,374.817169 
	C678.549438,396.312622 678.013611,397.737610 662.100769,412.482025 
	C658.436890,415.876953 654.787476,419.294495 651.281616,422.849792 
	C649.823242,424.328705 648.000000,425.723816 647.844299,428.179047 
	C650.234253,430.378784 653.013855,431.898865 655.912903,433.138733 
	C671.394531,439.759918 687.257935,441.344666 703.692505,437.031799 
	C731.954590,429.615021 759.733398,401.353577 758.654785,359.814758 
M625.752319,628.770813 
	C623.817505,627.053772 622.192932,624.900635 619.666809,624.074829 
	C617.831238,625.615112 617.206909,627.567871 616.427551,629.371216 
	C610.925354,642.103455 608.444275,655.145325 610.070312,669.214294 
	C614.711060,709.368286 652.507507,739.757080 692.165771,734.521545 
	C743.804504,727.704407 772.908630,674.049316 751.054565,627.861145 
	C733.501343,590.762695 689.423950,575.506897 653.000427,594.415283 
	C651.307373,595.294128 649.209656,595.855835 648.606628,598.082520 
	C649.340088,600.129822 651.005005,601.331177 652.394775,602.724609 
	C659.568604,609.917480 666.734131,617.119934 674.012329,624.206299 
	C676.317261,626.450439 677.487061,628.849365 677.288086,632.139465 
	C677.047302,636.122437 677.132263,640.133423 677.249146,644.127197 
	C677.343079,647.337952 675.996948,648.391357 672.782532,648.487183 
	C648.396118,649.213928 648.395752,649.269775 630.266785,633.019409 
	C628.903442,631.797302 627.596252,630.512695 625.752319,628.770813 
M377.696472,646.537476 
	C376.682373,647.095398 375.718323,648.002075 374.646240,648.156006 
	C366.035217,649.392029 357.365784,648.886169 348.715179,648.763550 
	C346.535950,648.732666 345.520477,647.374390 345.578888,645.119202 
	C345.678009,641.290833 345.897827,637.439453 345.600342,633.634155 
	C345.272675,629.442505 346.710297,626.319092 349.691315,623.463806 
	C356.785187,616.669250 363.726532,609.714478 370.671844,602.766785 
	C372.132538,601.305603 374.256958,600.224182 374.281189,597.739319 
	C351.668457,580.213318 310.189178,581.352112 284.171204,610.034668 
	C255.909073,641.191223 258.032196,687.902039 288.442963,715.486145 
	C319.208740,743.392273 365.728210,740.707764 394.288696,710.028809 
	C419.867096,682.553040 415.390167,637.406067 402.812805,624.323608 
	C393.992035,630.799683 387.024231,639.455811 377.696472,646.537476 
M496.500061,550.005005 
	C511.652924,550.014404 526.805847,550.049194 541.958618,550.023560 
	C550.680969,550.008789 552.672058,548.047974 552.680298,539.553162 
	C552.701660,517.573303 552.721619,495.593353 552.683350,473.613586 
	C552.671021,466.559906 550.436035,464.320587 543.416138,464.304321 
	C522.268982,464.255310 501.121643,464.252167 479.974426,464.276611 
	C472.416199,464.285370 469.359741,467.274933 469.340179,474.849396 
	C469.283417,496.829102 469.295685,518.809082 469.336090,540.788879 
	C469.347412,546.958008 471.918274,549.699768 478.018036,549.899719 
	C483.840332,550.090576 489.672394,549.982056 496.500061,550.005005 
M491.631134,578.732422 
	C490.216187,579.255920 488.875885,579.880310 487.882690,581.092651 
	C485.503571,583.996765 486.084442,587.398865 486.454376,590.656128 
	C486.708649,592.894897 488.811371,592.644836 490.434875,592.649231 
	C504.405090,592.687256 518.375427,592.697998 532.345703,592.689758 
	C533.814148,592.688904 535.351807,592.809937 536.276611,591.180176 
	C539.234253,585.968201 535.684509,578.374756 529.829346,578.300293 
	C517.366516,578.141846 504.892334,577.670654 491.631134,578.732422 
z"/>
<path fill="currentColor" opacity="1.000000" stroke="none" 
	d="
M656.256958,514.766357 
	C657.265015,506.073273 659.884033,503.693512 668.117920,503.670715 
	C678.601379,503.641663 689.085449,503.595490 699.568420,503.669830 
	C706.778259,503.720917 711.200562,507.650299 711.270996,513.818665 
	C711.345032,520.303101 706.948486,524.251343 699.508301,524.382263 
	C689.196716,524.563721 678.885498,524.861938 668.573486,524.888123 
	C661.009827,524.907349 658.107666,522.436218 656.256958,514.766357 
z"/>
<path fill="currentColor" opacity="1.000000" stroke="none" 
	d="
M321.438080,503.700348 
	C332.862000,503.667938 343.834320,503.601929 354.806213,503.647278 
	C362.042328,503.677155 366.270477,507.514862 366.307251,513.873718 
	C366.342712,520.004883 361.725830,524.365173 354.930450,524.406128 
	C344.301819,524.470093 333.671387,524.506531 323.043823,524.378235 
	C316.566925,524.300110 312.401337,520.542847 311.808746,514.683594 
	C311.250946,509.168518 314.543823,505.232666 321.438080,503.700348 
z"/>
<path fill="currentColor" opacity="1.000000" stroke="none" 
	d="
M497.996216,637.296509 
	C500.752930,630.495178 505.766968,628.199646 512.423523,628.594482 
	C518.211792,628.937805 522.606140,631.368958 525.035583,636.772095 
	C527.536804,642.335022 526.026184,647.188904 521.939514,651.312927 
	C517.714661,655.576416 512.571899,656.807007 506.859650,654.922485 
	C501.652740,653.204712 497.844208,648.275879 497.616272,643.114746 
	C497.536346,641.304810 497.783295,639.480408 497.996216,637.296509 
z"/>
<path fill="currentColor" opacity="1.000000" stroke="none" 
	d="
M321.585266,346.676575 
	C329.709778,336.875854 339.230469,331.620270 352.212524,332.499512 
	C363.983276,333.296692 375.851746,332.675293 387.676941,332.627502 
	C391.124054,332.613556 394.374756,333.175629 396.879883,335.710846 
	C399.935883,338.803589 400.795837,342.804901 398.233887,346.159424 
	C393.087555,352.897949 387.006653,358.240753 377.494629,358.095062 
	C358.511719,357.804230 339.521759,357.976074 320.534760,357.937378 
	C319.255463,357.934784 317.879120,358.230713 316.473816,357.034668 
	C317.306061,353.305756 318.981018,349.973267 321.585266,346.676575 
z"/>
<path fill="currentColor" opacity="1.000000" stroke="none" 
	d="
M322.965668,370.673279 
	C334.591858,370.792053 333.152374,369.660950 333.269348,380.620239 
	C333.295959,383.113647 333.326111,385.608246 333.279266,388.100891 
	C333.177368,393.522797 330.222961,396.907654 324.725311,396.993744 
	C313.092316,397.175995 301.453369,397.041382 289.817596,396.949097 
	C286.045624,396.919189 283.007355,395.361664 281.449860,391.736389 
	C279.899384,388.127411 280.947937,384.861908 283.281830,381.984985 
	C289.128265,374.778076 295.559753,369.065948 306.032684,370.534882 
	C311.413116,371.289581 316.986115,370.671112 322.965668,370.673279 
z"/>
<path fill="currentColor" opacity="1.000000" stroke="none" 
	d="
M680.000000,357.951416 
	C668.520325,357.933807 657.527588,357.579010 646.565186,358.005402 
	C638.040405,358.337036 631.902527,354.715240 626.740295,348.506805 
	C624.259583,345.523285 622.672668,342.362488 624.463074,338.466675 
	C626.260620,334.555328 629.596069,332.826477 633.682251,332.750214 
	C641.664917,332.601288 649.651794,332.679108 657.636963,332.672546 
	C663.792236,332.667511 669.948181,332.621735 676.102722,332.691528 
	C689.004028,332.837830 703.631409,344.066528 707.683716,357.601227 
	C698.507446,358.638306 689.475098,357.704681 680.000000,357.951416 
z"/>
<path fill="currentColor" opacity="1.000000" stroke="none" 
	d="
M740.156921,393.123657 
	C737.932861,396.317780 735.029541,397.127716 731.686768,397.097717 
	C721.054382,397.002350 710.420044,397.051300 699.789246,396.877991 
	C692.188843,396.754089 689.635803,394.060669 689.606873,386.625488 
	C689.594604,383.468842 689.868042,380.285797 689.551392,377.161407 
	C689.058289,372.295441 690.579224,370.316406 695.839050,370.571320 
	C704.624268,370.997070 713.445557,370.624817 722.249878,370.730621 
	C728.498535,370.805725 740.480774,381.446930 741.429810,387.560394 
	C741.722473,389.445709 741.402283,391.194183 740.156921,393.123657 
z"/>
<path fill="currentColor" opacity="1.000000" stroke="none" 
	d="
M626.001953,671.294800 
	C631.842407,664.023010 638.781250,661.144531 648.028015,661.496338 
	C665.495056,662.160828 683.005859,661.659302 700.498291,661.699402 
	C702.429077,661.703796 704.498169,661.152039 706.253052,662.474243 
	C707.019226,664.518127 705.956177,666.124817 705.045593,667.667419 
	C698.250061,679.179077 688.559570,686.463440 674.862183,686.831787 
	C661.545044,687.190002 648.210388,686.874878 634.883484,686.901489 
	C626.423401,686.918396 620.080566,678.070190 626.001953,671.294800 
z"/>
<path fill="currentColor" opacity="1.000000" stroke="none" 
	d="
M712.258362,624.569092 
	C719.699463,624.832092 726.666809,623.773376 733.666382,624.496277 
	C739.740112,625.123657 742.933594,630.184631 739.882629,635.453491 
	C735.395386,643.202698 729.967529,649.410400 719.447021,648.506104 
	C711.016968,647.781616 702.475220,648.240173 693.986084,648.371826 
	C690.208313,648.430420 688.936157,646.742432 689.196228,643.201782 
	C689.452026,639.719238 689.467407,636.219727 689.650330,632.730957 
	C689.922241,627.545227 692.545349,624.863342 697.831482,624.663696 
	C702.482056,624.487976 707.143127,624.588989 712.258362,624.569092 
z"/>
<path fill="currentColor" opacity="1.000000" stroke="none" 
	d="
M374.995728,687.082886 
	C364.017059,686.740723 353.493774,687.924316 343.053345,686.345520 
	C331.578705,684.610291 318.099121,672.747253 316.275146,662.878723 
	C317.432800,661.230042 319.240570,661.710571 320.811859,661.706665 
	C341.141113,661.656250 361.470551,661.629089 381.799805,661.662842 
	C387.932770,661.673035 398.218658,670.120850 399.470367,675.996765 
	C400.418060,680.445496 396.577881,685.293213 390.943970,686.534973 
	C385.843384,687.659180 380.644958,686.876526 374.995728,687.082886 
z"/>
<path fill="currentColor" opacity="1.000000" stroke="none" 
	d="
M313.962982,624.096191 
	C318.433868,624.270813 322.464935,624.103943 326.375000,624.713318 
	C330.533936,625.361511 333.295898,627.933777 333.247833,632.516357 
	C333.045013,651.845093 335.954224,647.935486 318.267914,648.366455 
	C311.458374,648.532410 304.640564,648.465088 297.828186,648.376953 
	C291.598816,648.296387 281.643372,638.689575 281.287842,632.563599 
	C281.056488,628.577759 283.910278,625.218445 288.577240,624.584595 
	C296.841736,623.462158 305.172241,624.343689 313.962982,624.096191 
z"/>
<path fill="currentColor" opacity="1.000000" stroke="none" 
	d="
M486.697510,506.173523 
	C488.656677,493.061127 497.051575,483.814056 507.520660,482.799194 
	C519.429871,481.644684 530.536194,488.503479 534.122681,499.427856 
	C537.358704,509.284546 535.002380,518.159302 527.494141,524.909851 
	C519.962524,531.681458 510.747437,533.996277 501.076324,529.684143 
	C491.306732,525.328064 486.707336,517.289490 486.697510,506.173523 
z"/>
</svg>